<svg xmlns="http://www.w3.org/2000/svg" viewBox="0 0 900 360" role="img" aria-label="Bioseguridad apicola">
  <defs>
    <linearGradient id="bg" x1="0" y1="0" x2="1" y2="1"><stop stop-color="#e8f4e9"/><stop offset="1" stop-color="#b7d8c2"/></linearGradient>
  </defs>
  <rect width="900" height="360" fill="url(#bg)"/>
  <path d="M450 46l174 60v90c0 82-68 128-174 156-106-28-174-74-174-156v-90z" fill="#0b3c31"/>
  <path d="M450 78l132 45v68c0 62-49 98-132 122-83-24-132-60-132-122v-68z" fill="#2b8a58"/>
  <path d="M392 180l38 38 84-94" fill="none" stroke="#fffdf8" stroke-width="26" stroke-linecap="round" stroke-linejoin="round"/>
  <rect x="74" y="212" width="260" height="64" rx="18" fill="#f4cc54" stroke="#705018" stroke-width="6"/>
  <path d="M112 212v64M164 212v64M216 212v64M268 212v64" stroke="#805b1c" stroke-width="5" opacity=".5"/>
  <circle cx="748" cy="108" r="32" fill="#e7a928"/>
  <path d="M724 108h48M748 84v48" stroke="#0b3c31" stroke-width="10" stroke-linecap="round"/>
  <rect x="656" y="205" width="154" height="74" rx="20" fill="#fffdf8" opacity=".9"/>
  <path d="M686 228h92M686 252h58" stroke="#0b3c31" stroke-width="10" stroke-linecap="round"/>
  <circle cx="134" cy="130" r="28" fill="#d75a45" opacity=".92"/>
  <path d="M122 130h24M134 118v24" stroke="#fffdf8" stroke-width="8" stroke-linecap="round"/>
</svg>
