<svg xmlns="http://www.w3.org/2000/svg" viewBox="0 0 900 360" role="img" aria-label="Tratamientos sanitarios apicolas">
  <defs>
    <linearGradient id="bg" x1="0" y1="0" x2="1" y2="1"><stop stop-color="#f7efe4"/><stop offset="1" stop-color="#dcefdc"/></linearGradient>
  </defs>
  <rect width="900" height="360" fill="url(#bg)"/>
  <rect x="90" y="204" width="420" height="76" rx="18" fill="#e7a928" stroke="#704d16" stroke-width="6"/>
  <path d="M128 204v76M180 204v76M232 204v76M284 204v76M336 204v76M388 204v76M440 204v76" stroke="#7d5b1c" stroke-width="5" opacity=".5"/>
  <rect x="574" y="72" width="92" height="218" rx="24" fill="#fffdf8" stroke="#0b3c31" stroke-width="8"/>
  <rect x="592" y="118" width="56" height="126" rx="18" fill="#dff2e6"/>
  <path d="M604 64h32v48h-32z" fill="#0b3c31"/>
  <rect x="698" y="105" width="74" height="164" rx="20" fill="#fffdf8" stroke="#0b3c31" stroke-width="8"/>
  <path d="M716 91h38v34h-38z" fill="#0b3c31"/>
  <rect x="714" y="156" width="42" height="10" rx="5" fill="#d75a45"/>
  <rect x="714" y="184" width="42" height="10" rx="5" fill="#e7a928"/>
  <path d="M390 90l118 118" stroke="#0b3c31" stroke-width="22" stroke-linecap="round"/>
  <path d="M506 206l-34 34" stroke="#0b3c31" stroke-width="30" stroke-linecap="round"/>
  <path d="M382 82l-38 38" stroke="#f7f1e7" stroke-width="30" stroke-linecap="round"/>
  <circle cx="326" cy="136" r="20" fill="#e7a928"/>
  <circle cx="294" cy="166" r="12" fill="#e7a928"/>
  <rect x="106" y="72" width="190" height="74" rx="20" fill="#fffdf8" opacity=".88"/>
  <path d="M134 110h132M134 130h86" stroke="#0b3c31" stroke-width="10" stroke-linecap="round"/>
</svg>
