<svg xmlns="http://www.w3.org/2000/svg" viewBox="0 0 900 360" role="img" aria-label="Lotes de miel trazables">
  <defs>
    <linearGradient id="bg" x1="0" y1="0" x2="1" y2="1"><stop stop-color="#f7efe1"/><stop offset="1" stop-color="#d9b75d"/></linearGradient>
  </defs>
  <rect width="900" height="360" fill="url(#bg)"/>
  <rect x="88" y="120" width="126" height="168" rx="28" fill="#c77b17" stroke="#6b3d0d" stroke-width="7"/>
  <rect x="108" y="82" width="86" height="46" rx="16" fill="#f8d56c" stroke="#6b3d0d" stroke-width="7"/>
  <rect x="118" y="170" width="66" height="72" rx="12" fill="#fff6da"/>
  <text x="132" y="205" font-family="Arial, sans-serif" font-size="22" font-weight="700" fill="#5b3c00">MIEL</text>
  <rect x="248" y="94" width="154" height="206" rx="34" fill="#d08a20" stroke="#6b3d0d" stroke-width="8"/>
  <rect x="272" y="52" width="106" height="52" rx="18" fill="#f8d56c" stroke="#6b3d0d" stroke-width="8"/>
  <rect x="282" y="158" width="86" height="92" rx="14" fill="#fff6da"/>
  <text x="301" y="198" font-family="Arial, sans-serif" font-size="24" font-weight="700" fill="#5b3c00">LOTE</text>
  <text x="300" y="224" font-family="Arial, sans-serif" font-size="15" font-weight="700" fill="#5b3c00">M2026</text>
  <rect x="590" y="72" width="210" height="210" rx="24" fill="#fffdf8" stroke="#0b3c31" stroke-width="9"/>
  <g fill="#0b3c31">
    <rect x="620" y="102" width="44" height="44" rx="5"/><rect x="726" y="102" width="44" height="44" rx="5"/><rect x="620" y="208" width="44" height="44" rx="5"/>
    <rect x="684" y="104" width="18" height="18"/><rect x="704" y="130" width="16" height="16"/><rect x="684" y="168" width="44" height="16"/><rect x="750" y="170" width="16" height="54"/>
    <rect x="682" y="208" width="18" height="44"/><rect x="710" y="212" width="34" height="16"/><rect x="728" y="242" width="42" height="14"/><rect x="668" y="188" width="18" height="18"/>
  </g>
  <path d="M448 180h86" stroke="#0b3c31" stroke-width="14" stroke-linecap="round"/>
  <path d="M520 150l42 30-42 30" fill="none" stroke="#0b3c31" stroke-width="14" stroke-linecap="round" stroke-linejoin="round"/>
</svg>
