<svg xmlns="http://www.w3.org/2000/svg" viewBox="0 0 900 360" role="img" aria-label="Inventario apicola">
  <defs>
    <linearGradient id="bg" x1="0" y1="0" x2="1" y2="1"><stop stop-color="#edf5e8"/><stop offset="1" stop-color="#d3bd79"/></linearGradient>
  </defs>
  <rect width="900" height="360" fill="url(#bg)"/>
  <rect x="86" y="74" width="520" height="230" rx="26" fill="#fffdf8" stroke="#0b3c31" stroke-width="8"/>
  <path d="M110 150h472M110 226h472M260 74v230M432 74v230" stroke="#0b3c31" stroke-width="7" opacity=".35"/>
  <rect x="132" y="98" width="88" height="36" rx="12" fill="#f4cc54"/>
  <rect x="304" y="98" width="86" height="36" rx="12" fill="#2b8a58"/>
  <rect x="472" y="98" width="76" height="36" rx="12" fill="#d75a45"/>
  <rect x="132" y="178" width="88" height="34" rx="12" fill="#dff2e6"/>
  <rect x="304" y="174" width="86" height="42" rx="12" fill="#f4cc54"/>
  <rect x="472" y="176" width="76" height="38" rx="12" fill="#dff2e6"/>
  <rect x="132" y="250" width="88" height="34" rx="12" fill="#f4cc54"/>
  <rect x="304" y="250" width="86" height="34" rx="12" fill="#dff2e6"/>
  <rect x="472" y="250" width="76" height="34" rx="12" fill="#2b8a58"/>
  <rect x="666" y="100" width="124" height="176" rx="26" fill="#fffdf8" stroke="#0b3c31" stroke-width="8"/>
  <path d="M696 136h64M696 168h64M696 200h44" stroke="#0b3c31" stroke-width="10" stroke-linecap="round"/>
  <circle cx="760" cy="244" r="20" fill="#e7a928"/>
</svg>
